<?xml version="1.0" standalone="no"?>
<!DOCTYPE svg PUBLIC "-//W3C//DTD SVG 1.1//EN" "http://www.w3.org/Graphics/SVG/1.1/DTD/svg11.dtd" >
<svg xmlns="http://www.w3.org/2000/svg">
<metadata></metadata>
<defs>
<font id="eliemedium" horiz-adv-x="20" >
<font-face units-per-em="2048" ascent="1638" descent="-410" />
<missing-glyph horiz-adv-x="860" />
<glyph horiz-adv-x="0" />
<glyph horiz-adv-x="682" />
<glyph unicode=" "  horiz-adv-x="860" />
<glyph unicode="&#x09;" horiz-adv-x="860" />
<glyph unicode="&#xa0;" horiz-adv-x="860" />
<glyph unicode="!" horiz-adv-x="276" d="M21 957q1 310 23 337t57 22q26 -4 30.5 -51.5t3.5 -305.5q-2 -241 -6.5 -298t-23.5 -61q-11 -2 -28.5 4t-28.5 16q-19 17 -23.5 75t-3.5 262zM130 222q0 13 14 30q23 28 61.5 26.5t48.5 -30.5q10 -31 -4.5 -70.5t-41 -45.5t-62.5 49q-16 28 -16 41z" />
<glyph unicode="#" />
<glyph unicode="$" />
<glyph unicode="%" />
<glyph unicode="&#x26;" />
<glyph unicode="'" />
<glyph unicode="(" />
<glyph unicode=")" />
<glyph unicode="*" />
<glyph unicode="+" />
<glyph unicode="," horiz-adv-x="208" d="M23.5 126q7.5 21 32.5 43q33 29 33 105q0 106 39 132q25 17 44 -15q12 -21 15 -54q6 -69 -17 -131t-66 -94q-27 -20 -49 -23t-30.5 6.5t-1 30.5z" />
<glyph unicode="-" />
<glyph unicode="." horiz-adv-x="182" d="M20.5 214.5q3.5 31.5 36.5 54.5q46 27 77 19t28.5 -45.5t-45.5 -69.5q-28 -21 -42 -23.5t-30 11.5q-28 22 -24.5 53.5z" />
<glyph unicode="/" />
<glyph unicode="0" horiz-adv-x="544" d="M24 701q-13 144 12 174q22 26 45.5 23.5t39.5 -32.5q10 -20 30 -26.5t69 -6.5q130 0 216.5 -85.5t86.5 -213.5q0 -59 -10 -80.5t-53 -56.5q-43 -34 -70 -43t-93 -8q-88 1 -135 31.5t-91 114.5q-34 65 -47 209zM145 658q-8 -97 39 -162.5t123 -65.5q45 0 88.5 36.5 t43.5 74.5q0 49 -26.5 102.5t-62.5 76.5q-26 17 -110 27.5t-88 -3.5q-1 -3 -7 -86z" />
<glyph unicode="1" horiz-adv-x="776" d="M24 300.5q-12 29.5 17 58.5q21 21 67 19t65 -25q21 -26 81 -21l61 5l5 118q4 103 -5.5 179t-30.5 105q-14 18 -26 15.5t-57 -32.5q-54 -37 -103.5 -37.5t-56.5 35.5q-5 30 16.5 54.5t54.5 24.5q20 0 48.5 21.5t54.5 45t53 40.5t52 7t44 -55q49 -117 73 -386l12 -135 l131 6q176 8 176 -40q1 -21 -31 -55q-21 -22 -34.5 -25.5t-34.5 7.5q-22 12 -102 12t-164.5 -6.5t-174.5 -4t-130 19.5q-49 20 -61 49.5z" />
<glyph unicode="2" horiz-adv-x="573" d="M27 342q19 29 84 46q60 16 114 44.5t78 57.5q42 50 58 138.5t-12 116.5q-23 23 -57 18.5t-63 -22.5t-59.5 -27t-45.5 3q-28 24 -18.5 49t58.5 57q67 43 149 44t122 -41q38 -40 38 -107t-23.5 -127t-47.5 -104.5t-33 -49.5q-7 -4 -12 -14.5t-5 -20.5q0 -18 25 -21t56 1.5 t64 -0.5t46 -25q36 -57 -71 -72q-47 -7 -126 -7q-89 0 -153 -8t-82.5 -13.5t-33 -2.5t-35.5 24q-34 34 -15 63z" />
<glyph unicode="3" horiz-adv-x="653" d="M27 483q-17 22 7 74q11 23 26.5 32t44.5 9q44 0 113.5 33t69.5 54q0 19 -82 7q-72 -10 -99 9t-4 63q13 24 40 29.5t128 5.5t128.5 -5.5t39.5 -28.5q11 -20 7.5 -39t-24.5 -53q-15 -24 -35 -43t-34 -24q-39 -12 -23 -35q12 -17 52 -30q81 -25 191 -87q35 -20 50.5 -64.5 t5.5 -97.5q-10 -48 -94.5 -121.5t-142.5 -84.5q-152 -29 -257 79q-39 41 -52 66t-13 61q1 57 31 100.5t61 31.5q17 -6 21 -20.5t-3 -48.5q-7 -37 0.5 -58.5t40.5 -58.5q34 -38 57 -49t68 -11t69 11t63 50q26 26 44 52t18 38q0 32 -80 70t-186 60t-173 11q-57 -9 -74 13z" />
<glyph unicode="4" horiz-adv-x="937" d="M32.5 260q24.5 34 134.5 120q119 94 168 148.5t49 92.5t25 74t63 39t59.5 -23.5t3.5 -64.5q-19 -41 -5 -149l13 -109h185q117 0 151.5 -5t37.5 -22q7 -40 -38.5 -57t-157.5 -17h-144v-70q0 -68 -20 -90t-64 -2q-23 11 -32.5 26t-9.5 43q0 50 -16 59q-17 11 -196 -34 q-115 -29 -151.5 -32.5t-51.5 11.5q-28 28 -3.5 62zM266 342q0 -12 10 -12q13 -1 84 17q45 11 59.5 22.5t14.5 35.5q0 40 -15 49q-12 8 -82.5 -44t-70.5 -68z" />
<glyph unicode="5" horiz-adv-x="593" d="M23 376q-9 31 15 46q7 4 30 -9t49 -36q72 -67 114.5 -82.5t105.5 2.5q89 26 121 93.5t-21 116.5q-22 20 -58.5 26t-138.5 6h-162v101q0 66 8.5 94t41.5 69q21 26 41.5 44.5t28.5 18.5q13 0 67.5 25.5t64.5 25.5q22 0 40.5 -24.5t18.5 -53.5q0 -37 -25.5 -55.5t-62.5 -8.5 q-25 6 -41 -1.5t-37 -33.5q-34 -42 -25 -58.5t65 -16.5q58 0 156 -36.5t125 -67.5q29 -34 30 -82.5t-24 -97t-63.5 -91t-92 -69t-106.5 -26.5q-78 0 -172 71q-78 59 -93 110z" />
<glyph unicode="6" horiz-adv-x="677" d="M22 794q4 35 23 55q27 30 47 32t53 -21q23 -17 22 -26t-28 -43q-25 -31 -29.5 -57t3.5 -93q22 -209 128 -275q111 -69 106 -9q0 6 -2 14q-13 50 16 127t75 118q101 90 183 13q24 -22 31 -48.5t7 -92.5q0 -88 -20.5 -117t-121.5 -82q-49 -26 -89.5 -35t-104.5 -9 q-80 0 -103.5 8.5t-66.5 53.5q-73 77 -97.5 143t-30.5 203q-5 106 -1 141zM445 415q13 -36 51 -31q26 4 54 30q33 31 38.5 68.5t-18.5 61.5t-46.5 18.5t-51.5 -43.5q-45 -57 -27 -104z" />
<glyph unicode="7" horiz-adv-x="587" d="M26 750q-15 13 17 49q38 42 144 52t195 0t111 -22q51 -26 65 -107.5t4 -295.5q-9 -206 -23.5 -255.5t-62.5 -39.5q-25 5 -27.5 53.5t5.5 322.5q5 171 -16 208q-16 28 -43.5 31.5t-166.5 -4.5q-179 -11 -202 8z" />
<glyph unicode="8" horiz-adv-x="454" d="M21 525q0 49 15 90.5t31 66t27 51t4.5 60t-37.5 78.5q-26 38 -33.5 67t-4.5 75q3 50 11.5 66t35.5 24q107 30 268 -8q66 -16 84.5 -35t0.5 -54.5t-84 -107.5q-42 -46 -71.5 -88t-29.5 -54q0 -30 27 -115q19 -62 17.5 -85t-27.5 -81q-57 -127 -162 -102q-41 10 -57 44 t-15 108zM122 520.5q4 -40.5 22 -40.5q20 0 31 47t1 86q-6 23 -14.5 30.5t-16.5 -1t-14 -31.5q-13 -50 -9 -90.5zM130 1002q-9 -15 25 -76l36 -61l58 59q25 25 38.5 47t8.5 29q-10 17 -83 17.5t-83 -15.5z" />
<glyph unicode="9" horiz-adv-x="438" d="M20 801q0 64 28 127.5t72 101.5t104 37.5t95 -38.5q33 -35 47 -131.5t14 -197t5.5 -206.5t21.5 -152q19 -52 5 -83t-57 -31q-36 0 -51 46.5t-15 160.5q0 142 -23 161q-22 18 -43 -7q-38 -34 -83 -15.5t-82.5 86t-37.5 141.5zM121.5 832q0.5 -50 16.5 -92q18 -47 47 -38.5 t45 65.5q8 28 18.5 50.5t17 32.5t11.5 20t4 22t-8 31q-12 30 -40 41.5t-56 0t-40 -41.5q-16 -41 -15.5 -91z" />
<glyph unicode=":" horiz-adv-x="192" d="M21 276.5q-2 28.5 19 49.5t50 19t49 -26q13 -16 9 -28.5t-32 -40.5t-40.5 -32t-28.5 10q-24 20 -26 48.5zM22.5 506.5q-7.5 29.5 9.5 45.5q19 14 50 12t60 -20t29 -39q0 -27 -43.5 -42t-73.5 1q-24 13 -31.5 42.5z" />
<glyph unicode=";" horiz-adv-x="178" d="M20 597q-2 15 9 41q17 46 56 40q22 -3 29.5 -14.5t7.5 -39.5q0 -47 -28 -66.5t-56 8.5q-16 16 -18 31zM21 148q3 53 13.5 105t15.5 63q18 35 51.5 29t48.5 -46q13 -47 0.5 -99.5t-46 -90.5t-64.5 -26q-22 12 -19 65z" />
<glyph unicode="&#x3c;" />
<glyph unicode="=" />
<glyph unicode="&#x3e;" />
<glyph unicode="?" horiz-adv-x="575" d="M25 1169q-14 26 12 58q19 23 193.5 24t250.5 -22q47 -14 58 -27.5t15 -59.5q4 -45 -8.5 -69.5t-67.5 -82.5q-48 -51 -78.5 -70t-74.5 -26q-31 -4 -54 -15t-28 -23q-7 -19 6.5 -117.5t30.5 -152.5q13 -40 -24 -57.5t-78 9.5q-16 11 -22.5 18t-11.5 31t-6 56t-1 104 q0 182 21 200q20 15 97 28q85 13 157.5 63t10.5 100q-25 20 -101.5 22t-241.5 -13q-41 -4 -55 22zM262 309q17 32 51 36q39 4 52 -39q3 -10 4 -21q5 -54 -20.5 -74.5t-60.5 10.5q-48 44 -26 88z" />
<glyph unicode="@" />
<glyph unicode="A" horiz-adv-x="600" d="M22 334q-1 5 -1 11q0 28 29 68q28 37 110.5 239t129.5 260q16 21 59 21q24 0 39.5 -15t34.5 -56q33 -72 33 -128q0 -39 13 -61.5t28.5 -54.5t18.5 -90q2 -42 12.5 -76t21.5 -49t20 -32q10 -18 10 -27q0 -10 -11 -32q-18 -29 -50 -29t-47 29q-15 31 -37 109l-23 84h-217 l-23 -75q-26 -86 -41.5 -106t-54.5 -20q-47 0 -54 30zM263 636q9 -22 58 -22q48 0 58 20q3 7 3 19q0 22 -12 62q-12 43 -26 57q-7 7 -15 7q-7 -1 -15 -7q-16 -14 -34 -55q-19 -43 -19 -67q0 -8 2 -14z" />
<glyph unicode="B" horiz-adv-x="624" d="M20 468q-1 5 0 9q0 34 32 75q30 38 32 102q0 3 1 7q0 60 -27 116q-20 43 -18.5 56.5t32.5 44.5q50 50 142 65q34 6 63 6q49 0 85 -16q25 -10 33 -23.5t5 -44t-19 -100.5q-6 -27 10 -47t81 -69q84 -61 112 -117q20 -39 20 -89q0 -21 -4 -43q-4 -24 -20 -56t-35 -51 q-30 -31 -54.5 -39.5t-87.5 -8.5q-84 0 -174 37.5t-154 99.5q-49 48 -55 86zM196 754q4 -2 9 -1q23 -1 59 33q35 33 36 53q0 5 -3 9q-11 18 -31 18q-4 0 -8 -1q-26 -4 -55 -32q-31 -31 -31 -52q0 -18 24 -27zM210 606q-3 -8 -3 -23q0 -34 15 -106q18 -82 44 -105.5 t118 -38.5q14 -2 26 -2q41 0 67 25q29 28 29 71q0 9 -2 17q-6 54 -54 99q-50 49 -91 70q-37 19 -80 19h-11q-50 -2 -58 -26z" />
<glyph unicode="C" horiz-adv-x="571" d="M22 536q-2 13 -1 30q0 25 4 58q29 228 168 245q26 3 48 3q37 0 63 -9q40 -14 74 -57q27 -35 31.5 -52.5t-6.5 -38.5q-7 -13 -18 -23t-19 -10q-20 0 -50.5 29t-30.5 49q-1 28 -29 32q-5 1 -10 0q-25 0 -58 -16q-31 -16 -42.5 -35.5t-19.5 -67.5q-6 -43 -6 -79 q0 -84 32 -138q48 -78 152 -77q39 0 73.5 10.5t54 24t40 25.5t31 14.5t27.5 -8.5q22 -18 22 -38q0 -21 -24 -45q-45 -44 -145 -65q-48 -10 -91 -10q-171 0 -244 168q-22 47 -26 81z" />
<glyph unicode="D" horiz-adv-x="399" d="M34 841q21 25 53 25q47 0 116 -54q82 -63 129.5 -135.5t47.5 -134.5q0 -43 -16 -79t-65 -105q-80 -113 -118 -113q-43 0 -60.5 26.5t-17.5 89.5q0 64 -24.5 200t-47.5 199q-11 31 -11 47q0 17 14 34zM170 608q0 -58 16.5 -126.5t30.5 -68.5q41 1 51 67q2 16 2 31 q0 52 -24 108q-22 51 -39 68q-8 8 -14 8q-8 1 -13 -11q-10 -20 -10 -76z" />
<glyph unicode="E" horiz-adv-x="659" d="M30 670q12 26 43.5 35t155.5 22q117 12 198.5 31t102.5 28q16 7 29 7q3 -1 7 -1q14 -2 40 -28q33 -33 33 -54q0 -9 -6 -15q-19 -23 -104 -25q-98 -3 -225.5 -43.5t-133.5 -70.5q-6 -28 8 -42q7 -7 31 -7q35 -1 105 13q120 22 161 49q28 18 42.5 20t29.5 -10 q26 -20 22 -36.5t-43 -52.5q-20 -19 -47 -31t-47 -12q-55 0 -127 -21t-89 -42q-13 -16 -7.5 -27.5t35.5 -36.5q37 -30 69.5 -37t55 3.5t41 25t36 25t31.5 4.5q27 -10 27 -32q0 -14 -11 -33q-28 -48 -91 -78q-41 -19 -78 -19q-61 0 -117 30q-68 37 -96.5 87t-37.5 152 q-5 57 -15 96t-18 52.5t-14 23.5q-6 9 -6 18q0 8 10 32z" />
<glyph unicode="F" horiz-adv-x="585" d="M20 591q0 45 8.5 71.5t23 39t45 17.5t62 6t87.5 6t110 16q82 16 130 16q59 0 64 -25q3 -15 -10 -40q-10 -19 -28.5 -26t-59.5 -7q-73 0 -188 -30q-84 -22 -101 -33.5t-17 -46.5v-50h210q150 0 180 -4.5t30 -28.5q0 -22 -23 -31.5t-103 -23.5l-201 -34q-67 -11 -79 -37 q-3 -7 -3 -17q0 -27 24 -76q21 -43 21 -56.5t-22 -37.5q-24 -25 -48 -29q-5 -1 -9 -1q-17 0 -26 14q-15 24 -46 205t-31 243z" />
<glyph unicode="G" horiz-adv-x="632" d="M30 567q16 79 66.5 154.5t104.5 101.5q52 25 105 25h11q58 -3 93 -36q36 -34 36 -54q0 -21 -40 -59l-42 -39l-38 36q-35 33 -74 35t-50 -29q-5 -14 -39 -65t-34 -76q0 -23 33 -27q12 -1 42 -1q50 0 151 4q85 3 136 3q31 0 49 -1q49 -3 60 -17q12 -15 12 -32q0 -8 -4 -18 q-10 -25 -39 -25t-50 -20.5t-21 -48.5q0 -69 -68 -126t-151 -57q-136 0 -209 109q-50 75 -50 171q0 44 10 92zM203 321q38 -20 79 -20q5 0 10 1q46 2 79 28q24 19 24 41q0 8 -3 17q-4 10 -13 16q-8 6 -16 6h-2l-104 -12q-89 -10 -89 -37q0 -17 35 -40z" />
<glyph unicode="H" horiz-adv-x="653" d="M22 630q-2 8 -2 16q0 26 20 52q26 34 59 34q65 0 65 -107q0 -11 -1 -22l-5 -81l90 -5q20 -1 36 -1q56 0 70 14q6 6 6 16q0 21 -23 60q-31 53 -34.5 77.5t17.5 45.5q18 18 30 18h2q12 -1 41 -22q13 -10 28 -36t22 -52q14 -47 27 -57t74 -16q51 -5 68 -13.5t20 -30.5 q1 -5 1 -10q1 -24 -17 -40q-20 -20 -64 -26q-29 -4 -35.5 -17.5t-6.5 -67.5q0 -79 -20 -99q-21 -21 -46.5 -8.5t-25.5 43.5q0 45 -28 90q-25 39 -46 39q-3 0 -7 -1q-30 -9 -92 -20q-59 -9 -72 -35q-3 -6 -3 -14q0 -20 28 -41q22 -16 27 -31.5t-2 -41.5q-8 -32 -30 -50 q-21 -19 -45 -20h-3q-23 0 -43 16q-22 16 -27 47q-17 85 -31 224t-22 173z" />
<glyph unicode="I" horiz-adv-x="233" d="M20 758q2 50 15 66q17 22 24 24q1 0 3 1q8 0 30 -9q15 -6 21 -31t6 -84q1 -93 25.5 -205t51.5 -142q16 -17 16 -30t-28 -51q-36 -48 -63 -48q-26 0 -45 45q-30 74 -46 280q-10 117 -10 170v14z" />
<glyph unicode="J" horiz-adv-x="704" d="M20 440q0 26 42 68q35 33 52 33q4 0 7 -2q12 -8 12 -37q0 -16 -3 -37q-3 -18 -3 -32q0 -19 5 -31q10 -22 58 -70q62 -62 114 -68q7 -1 14 -1q49 0 124 37l74 37l-3 127q-2 71 -10.5 115t-29.5 84l-38 72l-112 -11q-48 -5 -76 -5q-11 0 -19 1q-26 3 -40 20q-15 18 -15 34 q0 14 13 25q28 23 105 28q62 4 137 21q63 13 131 13h24q67 -2 84 -8.5t17 -28.5q0 -33 -42 -39q-52 -7 -58 -33q-1 -6 -1 -15q0 -31 16 -103q18 -92 29 -157q11 -66 11 -94q0 -7 -1 -11q-3 -23 -37 -67q-46 -60 -63 -60q-16 0 -60 -33q-44 -34 -143 -34q-67 0 -94.5 9.5 t-70.5 46.5q-55 47 -102.5 112t-47.5 94z" />
<glyph unicode="K" horiz-adv-x="722" d="M24 826q3 6 10 15q19 23 41 25h4q19 0 30 -18q7 -11 17 -110t23 -112q11 -11 46 17.5t73.5 76t58.5 89.5q16 33 30.5 45t34.5 9q39 -5 39 -36q0 -22 -20 -57q-22 -38 -68 -95q-39 -48 -64.5 -87.5t-22.5 -46.5q2 -7 47.5 -37t129.5 -64t162 -35q58 -1 80.5 -7.5 t25.5 -23.5q2 -8 2 -15q-1 -25 -19 -49q-24 -30 -55 -31q-35 0 -132 32.5t-152 62.5q-41 22 -104 38q-40 10 -60 10q-12 0 -17 -3q-14 -9 12 -58q23 -44 23 -87q0 -10 -1 -20q-6 -52 -42 -57q-5 -1 -10 -1q-44 0 -64 59q-23 65 -34 249q-4 71 -9.5 131t-9 89.5t-6.5 52.5 q-3 20 -3 30q0 11 4 19z" />
<glyph unicode="L" horiz-adv-x="575" d="M34 655q24 29 46 29q20 0 38 -26q40 -58 43 -201q1 -59 4.5 -95t14.5 -63.5t26 -38.5q14 -12 44 -14l16 -2q23 0 49 6q35 7 91 22q70 20 103 20q12 0 20 -3q24 -9 27 -43v-8q0 -28 -20 -34q-89 -28 -134 -41.5t-92 -23.5q-48 -11 -67 -11h-2q-18 0 -43 8 q-26 8 -39.5 18.5t-39.5 33.5l-67 60v158q0 158 -20 190q-12 18 -12 30t14 29z" />
<glyph unicode="M" horiz-adv-x="870" d="M38 631q25 29 25 42q0 4 7.5 18.5t23.5 30.5t36.5 23.5t51.5 -9.5t64 -63q47 -65 107 -114q48 -39 70 -39q5 0 9 2q20 12 43.5 74t23.5 101q0 43 26 82q26 38 54 38q70 0 152 -243q26 -75 52 -173q17 -66 44 -89q24 -20 24 -59t-24 -58q-15 -13 -34 -13q-17 0 -35 10 q-40 21 -50 65q-6 27 -39.5 152.5t-41.5 159.5q-7 32 -20.5 41.5t-27 -6t-20.5 -50.5q-10 -57 -51.5 -124t-65.5 -67q-20 0 -100.5 61.5t-127.5 112.5q-37 40 -52 40q-4 0 -6 -2q-7 -7 -8 -49q0 -32 5 -85q6 -69 6 -102q0 -12 -1 -20q-3 -27 -26 -47q-26 -24 -43 -24 q-10 0 -17 9q-22 27 -39 174q-13 107 -13 143q0 37 18 57z" />
<glyph unicode="N" horiz-adv-x="575" d="M25 482q-4 89 -3.5 138.5t3.5 59.5q5 13 22 14q5 1 7 1q20 3 35 -7t32 -37q31 -49 163 -168q123 -111 143 -111q2 0 3 1q15 9 15 125q-1 10 -1 22q-2 138 -17 205q-11 41 -11 62q0 22 13 37q17 20 57 24q7 1 12 0q29 0 39 -14q9 -15 -5 -54q-6 -16 -6 -54q0 -36 6 -92 q10 -116 20 -216q3 -34 4 -66q0 -61 -13 -113q-9 -28 -21.5 -50t-20.5 -24h-1q-20 1 -172 131q-158 134 -166 134q-3 0 -6 -15.5t-4.5 -42t-1.5 -56.5v-24q0 -57 -4 -72q-5 -18 -31 -22q-5 -1 -9 -1q-36 -1 -54 45q-20 50 -25 171q-1 25 -2 69z" />
<glyph unicode="O" horiz-adv-x="479" d="M24 600q10 64 49 94q24 18 62 19q31 1 73 -13q92 -28 164 -99q44 -43 60 -72t23 -82q4 -32 4 -53q0 -16 -2 -27q-5 -26 -29 -60q-45 -63 -82 -86.5t-90 -24.5h-3q-53 0 -104 32q-52 32 -78 83q-6 11 -18 53q-11 43 -25 108q-8 38 -8 76q0 26 4 52zM130 498 q4 -50 19.5 -95t45 -76.5t60.5 -31.5q36 0 64 43t28 98q0 35 -13.5 58.5t-53.5 59.5q-57 52 -86 58q-5 1 -9 1q-23 0 -39 -30q-17 -31 -17 -71q0 -7 1 -14z" />
<glyph unicode="P" horiz-adv-x="436" d="M21 834q0 12 21 27q27 21 56 21h4q32 -2 134 -29q158 -41 177 -101q3 -8 2 -18q0 -55 -98 -134q-78 -63 -92 -98q-6 -14 -6 -36q0 -33 13 -83q11 -44 11 -64v-3q-1 -19 -18 -36q-16 -16 -31 -16q-34 0 -62 86q-10 31 -19 73q-18 81 -25 152.5t-13 111.5t-28 83 q-26 52 -26 64zM174 744q-3 -7 -3 -18q1 -20 11 -50q16 -46 31.5 -45.5t46.5 34.5q19 21 19 41q0 12 -7 23q-17 27 -53 33q-7 1 -12 2q-26 0 -33 -20z" />
<glyph unicode="Q" horiz-adv-x="811" d="M28 522q-8 45 -8 88q0 62 16 121q29 101 89 135q23 13 35 15q3 1 6 1q9 0 19 -5q13 -6 28.5 -14t55.5 -15t96 -8q76 -1 102 -9t60 -42q52 -52 72 -139q9 -41 9 -78q0 -43 -12 -80t-12.5 -51t8 -26t40.5 -39q59 -50 108 -62q32 -8 44 -26q7 -9 7 -19q0 -8 -5 -17 q-12 -17 -44 -26q-16 -5 -31 -5q-11 0 -22 3q-25 6 -65 30q-77 46 -104.5 57.5t-48 9t-67.5 -25.5q-1 0 -7.5 -4.5t-14 -8t-20.5 -8t-27 -5.5t-32 -1t-39 6.5t-43.5 17.5t-49.5 30.5t-55 45.5q-44 42 -61.5 73t-26.5 81zM145 732q-28 -44 -28 -99q0 -67 43 -151 q34 -68 108 -95q29 -10 52 -10q36 0 58 26q12 15 -5 39t-43 46.5t-40 50.5t6 52q18 22 42 22q36 0 83 -49q48 -48 68 -48h4q20 5 20 72q0 48 -10.5 69.5t-48.5 55.5q-60 52 -103 52q-36 0 -61 -36l-27 -39l-82 99z" />
<glyph unicode="R" horiz-adv-x="768" d="M21 685v8q0 30 14 47q24 27 56 19q22 -5 52.5 12.5t61.5 38t68 33.5q15 5 32 5q25 0 53 -10q48 -18 101 -76q46 -50 87.5 -125t41.5 -107q0 -26 -33.5 -66.5t-65.5 -52.5q-29 -11 -32 -17t15 -20q27 -20 126 -51t124 -45.5t25 -42.5q-1 -24 -41 -31q-15 -3 -31 -3 q-31 1 -71 9q-62 12 -117 39q-182 89 -245 148q-41 37 -46 31q-1 -1 -1 -9q0 -17 6 -63q5 -40 5 -78q0 -27 -3 -54q-6 -63 -46 -63q-19 0 -31 4.5t-20.5 17.5t-13 28t-9 44.5t-8 58.5t-10 78t-14.5 96q-28 162 -30 197zM186 594q-9 -41 -9 -67q0 -42 24 -42h1q13 1 32 11 q18 9 42 9q16 0 32 -3q44 -8 73 -18q9 -3 19 -3q21 0 44 14q26 22 26 55q0 49 -59 123q-58 71 -85 79q-5 2 -10 2q-25 0 -62 -31q-50 -41 -68 -129z" />
<glyph unicode="S" horiz-adv-x="495" d="M24 647q13 30 69 40q22 4 60 3q40 0 96 -4q110 -8 123 -21.5t7 -53.5q-3 -23 -20.5 -35.5t-39.5 -9t-37 21.5q-13 16 -42 22.5t-52.5 0.5t-23.5 -22q0 -26 96 -119.5t150 -119.5q64 -30 64 -53q0 -22 -54 -57q-53 -34 -130 -48q-39 -7 -75 -7q-34 0 -65 6q-50 11 -83 55 q-19 25 -19 45q0 14 11 25q12 12 24 8.5t35 -25.5q30 -27 94 -35q16 -2 28 -2q39 0 50 17q4 6 -30 46.5t-86 91.5q-153 149 -153 214q0 9 3 16z" />
<glyph unicode="T" horiz-adv-x="757" d="M40 636q-19 19 -19 33q0 15 22 24q46 19 224 30q92 5 179.5 14t127.5 15q41 4 77 6q7 0 13 1q26 1 38 -5q16 -6 27 -25q7 -11 7 -23q0 -19 -19 -40q-19 -20 -39 -24q-9 -2 -22 -2q-18 0 -43 3q-38 5 -59 4t-37.5 -11t-20.5 -32t-6 -60q-1 -10 0 -22q0 -31 5 -72 q11 -155 28 -188q5 -10 5 -21q0 -22 -21 -48q-19 -25 -33 -29q-3 -1 -8 0q-12 0 -31 8q-28 12 -36 45.5t-20 180.5l-17 208l-147 2q-148 1 -175 28z" />
<glyph unicode="U" horiz-adv-x="536" d="M44 792q29 21 46 21q8 0 14 -4q24 -18 49 -153q6 -33 14 -82q38 -236 56 -257q18 -22 66 -22q31 0 47.5 15.5t43.5 68.5q38 73 46 196q2 29 1 54q0 84 -21 135q-13 31 -13 46.5t13 30.5q18 22 40 23h2q20 0 37 -20q32 -39 31 -165q0 -37 -2 -81q-12 -196 -60 -269 q-13 -20 -24.5 -42.5t-17 -32.5t-22 -23t-45.5 -27q-44 -21 -62 -21h-1q-18 1 -70 27q-44 22 -70 56.5t-38.5 81.5t-19 93.5t-17.5 114.5t-28 123q-19 63 -19 80q0 16 24 33z" />
<glyph unicode="V" horiz-adv-x="559" d="M24 782q-4 15 -3 26q0 20 10 30q11 11 49 11q23 0 47.5 -34t79.5 -145q91 -181 110 -186q16 -5 34.5 24t33 80t18.5 107q5 62 14 89t29 41q22 16 33 15.5t31 -18.5q28 -25 28 -58.5t-16 -62.5t-32.5 -70.5t-16.5 -73.5q0 -53 -83 -228q-12 -24 -53 -30h-5q-31 0 -66 41 q-38 45 -67.5 103t-68.5 135.5t-63 113.5q-33 50 -43 90z" />
<glyph unicode="W" horiz-adv-x="761" d="M22 670q4 32 39 48q18 8 35 8q15 0 29 -6q30 -14 30 -47q0 -13 29.5 -81.5t36.5 -103.5q11 -51 32.5 -51t30.5 48l3 20q5 62 25 86q17 21 48 21q5 0 11 -1q23 -3 55 -35t86 -108q99 -139 114 -139q16 0 16 232q0 231 20 251q21 21 36 21q14 0 22 -20q21 -51 21 -289 q0 -270 -30 -331q-15 -30 -42 -30q-19 0 -45 15q-21 12 -51 36q-45 37 -88 93.5t-66 110.5q-17 41 -39 18q-18 -20 -27 -73q-13 -75 -39 -113q-24 -36 -46 -36q-8 0 -16 5q-38 24 -116 196q-12 27 -27 60q-38 85 -38 102t-25 38t-25 47q0 4 1 8z" />
<glyph unicode="X" horiz-adv-x="692" d="M21 485q6 42 46 42h1q42 -1 99 -46q59 -47 111 -61q17 -4 30 -4q26 0 34 19q5 19 51 92q43 67 70 67h5q26 -6 26 -46q0 -8 -2 -18q-6 -58 -45 -117l-43 -66l77 -51q76 -51 134 -75q50 -23 56 -57q1 -4 1 -8q0 -29 -38 -46q-25 -11 -52.5 -0.5t-100.5 59.5 q-112 76 -132 76q-35 0 -57 -38.5t-22 -99.5q0 -81 -27 -92q-14 -5 -27 -5q-33 0 -50 39q-10 23 -10 49q0 34 18 72q51 105 57.5 126.5t-7.5 34.5q-25 25 -65 47t-70 34q-31 12 -51 30q-18 16 -17 37v6z" />
<glyph unicode="Y" horiz-adv-x="696" d="M22 602q2 8 10 17q21 25 70 27h7q43 0 55 -22q21 -37 158 -142q129 -97 153 -97h3q10 4 21 20.5t15 35.5q9 38 41.5 131.5t42.5 110.5q9 14 25 14q5 0 11 -1q24 -5 37 -28q5 -9 5 -25q0 -33 -20 -97q-31 -94 -76 -208.5t-53 -159.5q0 -2 -15 -79q-8 -40 -50 -66 q-25 -15 -43 -15q-14 0 -24 9q-24 20 -25 57v5q0 33 12 63q12 33 25.5 64.5t13.5 38.5q0 15 -47.5 51t-117 86t-103.5 86q-18 19 -37.5 35.5t-33.5 26.5t-27 19.5t-20 16t-11 12.5q-3 5 -3 10q0 2 1 4z" />
<glyph unicode="Z" horiz-adv-x="946" d="M22 710q4 24 35 46q25 18 100 18q27 0 59 -2q124 -8 207 -41q48 -19 63 -33.5t18 -47.5q0 -5 1 -11q0 -52 -42 -123q-46 -79 -114 -132q-32 -25 -54.5 -47t-22.5 -28q0 -13 40 -13h20q60 4 144 19t177 28.5t161 16.5h16q55 0 77 -18q19 -19 19 -49t-18 -40 q-12 -7 -237 -18t-239 -23q-8 -6 -58 -15.5t-111 -16.5q-82 -9 -117 -9q-9 0 -15 1q-28 3 -48 26q-29 33 -29 56q0 10 35.5 43.5t85.5 70.5q126 94 163 136q33 37 33 77q0 5 -1 10l-5 49l-151 8q-154 9 -173 22q-20 13 -20 32q0 4 1 8z" />
<glyph unicode="[" />
<glyph unicode="\" />
<glyph unicode="]" />
<glyph unicode="a" horiz-adv-x="557" d="M20 350q-1 13 -1 27q0 41 11 85q14 58 40 111.5t69.5 88.5t93.5 36h1q54 0 124 -78q72 -79 95 -165q14 -50 38.5 -109.5t36.5 -93.5q8 -23 9 -37q0 -7 -2 -12q-12 -31 -47.5 -22.5t-70.5 49.5l-43 52l-60 -52q-61 -52 -101 -52q-41 0 -91 26t-75 61q-23 31 -27 85z M122 431q-1 -9 -1 -18q0 -57 26 -96q22 -34 54 -34q10 0 20 3q42 14 61 48q16 30 16 63v11q-3 40 -12 78t-20 63l-11 25q-17 21 -31 21q-4 0 -6 -1q-16 -5 -52 -48q-40 -46 -44 -115z" />
<glyph unicode="b" horiz-adv-x="655" d="M21 722q-1 4 -1 8q0 17 11 29q17 21 33 21q10 0 19 -8q25 -20 57 -99q19 -48 30.5 -81t14 -42t7 -18.5t16.5 -25.5q18 -24 30.5 -23t62.5 27q61 32 100 35q4 0 9 1q38 0 99 -22q57 -19 91.5 -64.5t34.5 -100.5q0 -43 -56.5 -102t-108.5 -70q-10 -2 -22 -2q-35 -1 -84 19 q-65 26 -96 65q-9 10 -25.5 18t-29.5 8q-28 0 -40.5 20t-52.5 126l-76 204q-20 55 -23 77zM332 337q22 -40 68 -50q14 -3 28 -3q18 0 36 6q32 10 49 30t21 44v6q0 21 -20 40q-20 20 -83 20h-9q-71 -2 -88 -24q-12 -15 -12 -33q-1 -17 10 -36z" />
<glyph unicode="c" horiz-adv-x="532" d="M31 483q18 76 45 114t80 62q30 14 54 15q5 0 11 1l37 -5q24 -6 36 -5q8 0 24.5 -15t31.5 -36q22 -31 25 -46.5t-10 -30.5q-21 -26 -52.5 -22.5t-47.5 32.5q-18 33 -45 33q-13 0 -27 -7q-45 -22 -67 -88q-12 -36 -12 -72q0 -43 11.5 -68.5t45.5 -59.5q31 -31 64 -45.5 t60 -13t55 9.5t49.5 21t42.5 21.5t35 12t27 -9.5q9 -10 9 -19q-1 -5 -3 -9q-6 -13 -42 -43q-50 -43 -109 -57q-33 -8 -73 -8q-31 0 -66 5q-112 16 -166 110q-34 59 -34 133q0 42 11 90z" />
<glyph unicode="d" horiz-adv-x="620" d="M23 331q4 88 13 117.5t42 64.5q49 51 93 51q33 0 95.5 -27.5t99.5 -57.5q31 -26 44 10q12 35 17 159q6 126 14.5 163.5t38.5 37.5q31 0 44 -33q12 -32 14 -94q1 -31 1 -64q-1 -34 -1 -68v-22q0 -61 7 -138q8 -91 29 -165q14 -52 20 -80q4 -21 5 -36q0 -6 -1 -10 q-2 -18 -11.5 -23t-29.5 -5q-27 0 -53 34.5t-39 86.5q-4 19 -14 33t-18 14q-19 0 -47 -46q-70 -117 -160 -142q-22 -6 -42 -6q-64 0 -116 58q-37 41 -43 67q-4 16 -4 57q0 26 2 64zM122 368q-1 -9 0 -18q0 -32 6 -65q8 -43 26 -75q17 -32 36 -31h1q25 1 68 41.5t60 79.5 q10 23 10 38q0 6 -1 10q-5 16 -39 50q-37 38 -80 46q-11 2 -20 2q-29 0 -48 -20q-17 -16 -19 -58z" />
<glyph unicode="e" horiz-adv-x="602" d="M22 436q4 14 32 37q42 33 42 52q0 23 44.5 72t104.5 93q71 52 123 56q4 0 8 1q48 0 92 -43q45 -44 48 -104v-8q0 -56 -38 -104q-28 -35 -134.5 -88.5t-147.5 -53.5q-31 0 -38 -15t1 -59q9 -47 64 -73q33 -14 69 -14q18 0 36 3q58 10 105.5 33.5t87 38.5t50.5 4 q10 -10 10 -22q0 -37 -101 -89q-52 -27 -94 -36.5t-111 -11.5h-28q-37 0 -55 2q-24 3 -39.5 12t-40.5 37q-29 33 -42.5 69t-22 85.5t-18.5 77.5q-8 23 -8 38q0 6 1 10zM174 475q12 -12 73 -12q62 0 126 56q43 37 50 52q2 5 2 11q0 12 -9 29q-19 35 -50 35q-48 0 -125 -79 q-32 -33 -52 -60q-16 -22 -16 -29q0 -2 1 -3z" />
<glyph unicode="f" horiz-adv-x="823" d="M23 438q6 15 25 20q13 3 35 3q13 0 30 -1l80 -5l-5 107q-2 34 -2 64q0 169 57 230q41 44 89 44q54 0 115 -56q54 -50 75 -124q8 -29 8 -52q0 -35 -19 -54q-28 -28 -55.5 -5t-37.5 81q-7 41 -25.5 66t-43.5 26q-22 0 -37 -67q-11 -54 -11 -113q0 -14 1 -28q3 -75 24 -93 q12 -8 48 -8q20 0 46 2q75 7 158 22q72 13 134 13h16q69 -2 75 -33v-5q0 -21 -28 -36q-32 -16 -88 -24.5t-115 -14.5t-120 -14.5t-92 -20.5q-15 -6 -21 -9.5t-8 -15.5t1 -27t12 -51q7 -30 16 -61t13 -43t5.5 -25.5t-2.5 -20t-14 -14.5q-15 -12 -27 -12h-2q-13 1 -37 17 q-29 19 -40 61.5t-15 88t-13 61.5t-83 27q-61 9 -97 38q-28 23 -28 46q0 8 3 16z" />
<glyph unicode="g" horiz-adv-x="522" d="M26 26q11 11 29.5 7.5t57.5 -23.5q52 -27 90 -27q3 0 6 1q39 2 101 40q31 19 46 44t28 82q15 66 15 91q0 12 -3 15q-8 8 -65 8q-21 0 -48 -1h-21q-74 0 -112 25q-44 30 -87 123q-26 66 -26 136q0 12 1 24q5 83 46 155.5t100 94.5q28 10 71 10q15 0 33 -1q65 -5 107 -25 q28 -13 43.5 -22.5t29.5 -28.5t19.5 -37.5t10 -60.5t5 -86t0.5 -125q0 -227 -20.5 -313t-92.5 -159q-44 -45 -68 -54.5t-96 -9.5q-67 0 -95 8.5t-66 40.5q-44 36 -44 56q0 7 5 12zM143 537v-17q0 -59 6 -80q7 -25 33 -46q39 -31 90 -31h6q56 2 81 37q16 23 23 50q3 15 3 27 q0 10 -3 19q-5 18 -20 18q-24 0 -46 27q-14 17 -9.5 27.5t33.5 31.5q37 26 44 64q1 9 1 16q0 29 -20 49q-21 22 -56 22q-12 0 -25 -3q-54 -10 -92 -50q-31 -33 -39.5 -60.5t-9.5 -100.5z" />
<glyph unicode="h" horiz-adv-x="700" d="M22 824q10 25 32 25q34 0 57.5 -43.5t31.5 -123.5q12 -114 31 -130q4 -3 9 -4q20 0 62 50q58 68 104 68h1q46 0 114 -67q138 -132 196 -299q16 -48 19 -74q1 -6 1 -11q0 -17 -8 -26q-10 -11 -35 -11q-28 0 -48 30.5t-20 73.5q0 34 -74.5 137t-111.5 119q-12 6 -23 6 q-23 0 -44 -24q-30 -36 -65 -136q-20 -58 -30 -83.5t-23 -40t-23.5 -13t-31.5 11.5q-20 9 -29 23t-14 44.5t-8 66.5t-14.5 108t-30.5 151q-27 115 -27 156q0 11 2 16z" />
<glyph unicode="i" horiz-adv-x="262" d="M21 994v6q0 27 23 53q20 21 32 27q5 2 9 3q7 1 14 -5q11 -8 29 -36q20 -31 19 -42t-27 -38q-21 -22 -34.5 -26t-29.5 7q-32 21 -35 51zM65 564q-6 56 -6 90q0 42 9 54q20 24 33 24q19 0 51 -48q25 -38 26 -59q0 -5 -2 -9q-3 -8 -3 -26q-1 -34 11 -106q18 -109 44 -187 q12 -39 12 -65q0 -16 -4 -28q-10 -24 -42 -24q-7 0 -16 1q-19 3 -32.5 28.5t-31.5 94.5q-35 137 -49 260z" />
<glyph unicode="j" horiz-adv-x="591" d="M23 70q-2 4 -2 9q0 8 10 17q18 19 51 -11.5t142 -163.5q63 -77 121 -77h6q61 4 98 92q17 38 17 76.5t-18 156.5q-16 108 -35.5 178.5t-30.5 97.5t-11 44q0 19 -12.5 41t-25 37.5t-18.5 38t6 42.5q11 20 26.5 26.5t45.5 3.5q38 -4 47.5 -16.5t16.5 -73.5q7 -64 28 -118.5 t21 -85.5q0 -29 26.5 -133.5t34.5 -181.5q4 -39 4 -67q0 -20 -2 -34q-5 -35 -29 -84q-37 -78 -80 -104q-31 -18 -80 -18q-17 0 -36 2q-44 5 -74 19t-61 45q-22 21 -39 43.5t-17 30.5q0 14 -33.5 50t-33.5 51q0 14 -14 27t-28 20.5t-21 19.5zM273 879q-2 6 -2 12q0 8 5 17 q8 14 21 28t25.5 22.5t16.5 8.5q23 0 61 -19t38 -30q0 -20 -55 -44q-41 -18 -66 -18q-9 0 -15 2q-23 7 -29 21z" />
<glyph unicode="k" horiz-adv-x="854" d="M27 665q-6 24 -6 43q0 23 10 36q20 24 40 24q17 0 35 -20q38 -42 49 -142q12 -107 17 -123q5 -15 16 -15q13 0 36 23q30 33 61 93q49 96 79 132q24 29 46 30q5 0 10 -2q11 -5 19 -18t8 -28q0 -40 -63.5 -145.5t-115.5 -150.5l-61 -53l74 -37q34 -17 84.5 -30.5t84 -19 t103 -15.5t85.5 -12q21 -3 40 -3q39 0 65 14q24 12 46 12q9 0 17 -2q29 -6 28 -29q0 -22 -33 -65l-31 -41l-149 23q-49 8 -102.5 15t-85.5 11t-61 8t-45 8t-22 9q-15 12 -72 25q-35 8 -47.5 2.5t-22.5 -32.5q-17 -45 -37.5 -53.5t-50.5 19.5q-25 22 -27 51.5t4 53t-10 56.5 q-16 30 3 54q12 14 12 68q0 21 -2 47q-6 96 -28 179z" />
<glyph unicode="l" horiz-adv-x="249" d="M22 778q4 24 16 31q9 5 27 5q7 0 15 -1q14 -1 22.5 -4t15.5 -11t11 -18t8.5 -30.5t7 -43t8.5 -60.5t12.5 -79t18 -101.5t25.5 -125.5q20 -90 19 -116q0 -25 -15 -41q-15 -15 -32 -15q-13 0 -27 8q-29 16 -39 56t-25.5 154.5t-43.5 229.5q-16 66 -22 102q-4 23 -4 41 q1 10 2 19z" />
<glyph unicode="m" horiz-adv-x="913" d="M22 584q2 27 7.5 50.5t20.5 35.5q12 9 28 9q4 0 9 -1q24 -3 30.5 -14t2.5 -46q-5 -48 14 -54q12 -5 25 17q12 21 35 21q20 0 46 -15q58 -32 93 -102q20 -40 38.5 -34.5t61.5 64.5t86 85.5t115 38.5q17 3 34 3q101 0 181 -105q29 -38 37 -68.5t8 -104.5q0 -94 -10.5 -123 t-43.5 -29q-20 0 -29 31.5t-9.5 73t-9 92t-27.5 79.5q-19 30 -39 36q-12 4 -42 5q-18 0 -42 -2q-69 -4 -87 -14.5t-46 -65.5q-40 -80 -52 -141q-12 -56 -41 -80q-17 -14 -34 -15l-24 7q-29 18 -41 71q-7 32 -28 74t-44 70.5t-34 24.5q-16 -6 -20 -46.5t-15 -86.5t-44 -64 q-17 -9 -30 -9q-16 0 -28 13q-22 24 -30 94q-1 11 -6 42.5t-8.5 58t-6.5 62.5q-2 24 -2 43q1 10 1 19z" />
<glyph unicode="n" horiz-adv-x="661" d="M20 523q1 52 20 71q18 18 34 18q8 0 16 -4q24 -14 32 -61q7 -43 14.5 -62.5t15.5 -24t23 5t30.5 23.5t44.5 33.5t59 32.5q42 18 61 18q0 -1 2 -1q18 -2 64 -24q65 -33 126 -101.5t71 -120.5q8 -44 8 -80q-1 -49 -15 -86q-19 -49 -53 -49q-11 0 -23 5q-16 6 -21.5 30 t-5.5 86q0 71 -8.5 98.5t-42.5 69.5q-30 37 -52 50t-53 13q-58 0 -104 -60t-49 -139q-2 -53 -9.5 -66t-38.5 -17q-9 -1 -18 -1q-39 0 -55 23q-20 28 -27 119q-4 45 -12 83.5t-16 46.5q-18 18 -18 66v5z" />
<glyph unicode="o" horiz-adv-x="528" d="M20 489q0 111 7.5 144.5t39.5 74.5q31 38 49 46q10 5 25 5q13 0 31 -3q200 -34 280 -111q36 -35 45.5 -59.5t9.5 -80.5q0 -155 -154 -253q-43 -27 -72 -34q-17 -4 -42 -4q-18 0 -40 2q-52 5 -78 16.5t-54 43.5q-34 37 -40.5 67.5t-6.5 145.5zM124 390q5 -26 31 -53 q15 -17 33 -29.5t27 -12.5q47 0 109 46t88 112q9 21 9 44q0 46 -37 94q-23 27 -50 38t-82 15q-23 2 -41 2q-54 0 -65 -16q-12 -21 -21 -136q-3 -43 -3 -69q0 -23 2 -35z" />
<glyph unicode="p" horiz-adv-x="374" d="M29 593q17 21 24 21q13 0 79 -37t73 -48q12 -18 51 -32q38 -14 72 -71q28 -44 28 -74q0 -8 -2 -15q-4 -14 -30 -45t-57 -59l-77 -70l22 -69q22 -68 22 -116q0 -53 -27 -80q-21 -21 -29 -21t-27 20q-16 16 -30.5 73.5t-33 160.5t-26.5 139q-42 192 -42 272q0 39 10 51z M147 422q-2 -3 -2 -11q0 -14 5 -42q12 -73 42 -87q5 -2 10 -2q14 0 21 25q4 15 4 36q0 11 -1 23q-3 34 -12.5 46.5t-33.5 16.5q-9 1 -16 1q-14 0 -17 -6z" />
<glyph unicode="q" horiz-adv-x="581" d="M22 374q13 84 72 170.5t104 86.5q29 0 40 17q10 17 47 17q24 0 61 -8q91 -19 126 -58q28 -31 44.5 -156t16.5 -305q0 -185 19 -214q9 -15 9 -28q0 -16 -12 -30q-19 -21 -52 -21q-7 0 -14 1l-44 5l-4 193q-4 193 -13 215q-2 5 -8 5q-20 0 -86 -52q-70 -56 -108 -64 q-8 -2 -16 -2q-33 0 -74 25q-57 34 -87 90q-23 43 -23 87q0 13 2 26zM131 386q-1 -7 -1 -14q0 -37 22 -68q11 -18 27.5 -30t29.5 -12q37 0 70.5 30t33.5 62q0 39 27 61q32 26 44 66q6 17 6 30q0 18 -10 30q-8 10 -32 16.5t-50 6.5q-43 0 -82 -27t-59.5 -66.5t-25.5 -84.5z " />
<glyph unicode="r" horiz-adv-x="641" d="M20 690q0 16 14 32q21 25 37 25h3q18 -3 54 -42l42 -45l54 40q36 26 75.5 34t153.5 12q63 2 100 2q32 0 45 -2q23 -3 23 -19q0 -2 -1 -5q-3 -17 -29.5 -28t-93.5 -23q-101 -18 -144.5 -30.5t-65 -28.5t-39.5 -50q-21 -41 -24 -99q-1 -23 -1 -43q1 -30 3 -54q1 -8 1 -16 q0 -28 -13.5 -48.5t-44.5 -20.5q-9 0 -19 1q-33 4 -40.5 39t-21.5 129t-54 191q-14 33 -14 49z" />
<glyph unicode="s" horiz-adv-x="512" d="M20 571q0 25 37 54.5t93 49.5q55 20 154 20q21 0 44 -1q93 -3 114 -9t25 -32q1 -5 1 -9q0 -30 -29 -46q-17 -10 -35 -10q-16 0 -33 9q-32 17 -88 17q-24 0 -53 -3q-95 -11 -107 -42q-1 -4 -1 -8q0 -21 32 -57q38 -43 90 -70q43 -21 138 -101q56 -48 72.5 -72t16.5 -60 q0 -107 -140 -107q-69 0 -145.5 38.5t-114.5 88.5q-21 28 -21 50q0 17 13 30q5 5 21.5 -4.5t35.5 -27.5q37 -33 129 -63q58 -19 87 -19q16 0 22 6q19 19 -10.5 51t-86 70.5t-115.5 80t-102.5 89t-43.5 87.5z" />
<glyph unicode="t" horiz-adv-x="714" d="M20 522q-1 2 0 5q0 12 14 22q18 13 58 18q26 4 36 18t18 55q7 45 7 79q-1 6 -1 12q-2 38 -6 62.5t2.5 44t29.5 35.5t40 16q26 0 38 -36q13 -42 13 -143v-138l77 -5q12 -1 25 -1q68 0 159 23q111 28 136 28h2q22 -1 26 -33v-7q0 -15 -7 -25q-9 -12 -34 -22 q-41 -16 -152.5 -40.5t-164.5 -29.5q-30 -3 -41.5 -13t-14.5 -36q-3 -25 9.5 -46t47.5 -52q43 -39 65 -45q11 -3 29 -3q20 0 49 4t50 4q48 0 45 -23q-1 -19 -39 -49q-47 -37 -94 -37t-116 37q-55 29 -110 94t-56 103q-1 25 -22 45t-47 20q-10 0 -26.5 9t-28.5 22.5t-16 27.5 z" />
<glyph unicode="u" horiz-adv-x="544" d="M27 618q13 26 52 27q8 0 16 -1q30 -3 38 -18.5t15 -78.5q10 -92 46 -170t84 -112q47 -33 63.5 -33t52.5 33q40 38 42 138v8q0 94 -37 141q-31 40 -31 70q0 22 17 39q19 19 27 19l1 1q8 0 36 -16q22 -12 31 -43.5t17 -87.5t20 -94q7 -22 8 -49q0 -35 -12 -79 q-20 -78 -60 -121q-27 -29 -52 -38t-79 -9q-61 0 -84 11t-71 63q-31 34 -52 70t-29.5 59t-24.5 80t-27 90q-13 42 -13 70q0 18 6 31z" />
<glyph unicode="v" horiz-adv-x="524" d="M20 678v5q0 27 25 48q22 15 46.5 5.5t43.5 -29t19 -31.5q0 -17 33.5 -52.5t33.5 -47.5q0 -16 38.5 -72.5t49.5 -56.5q17 0 32 66.5t15 142.5q0 61 7 92.5t27 56.5q34 44 76 44q39 0 39 -18t-29 -86q-32 -74 -40 -223q-14 -246 -80 -282q-10 -5 -20 -5q-29 0 -62 39 q-43 51 -81.5 113t-38.5 81q0 14 -33.5 62.5t-33.5 62.5q0 19 -34 38q-31 17 -33 47z" />
<glyph unicode="w" horiz-adv-x="792" d="M22 620q-2 19 -2 35q0 43 18 58q27 23 52 2.5t26 -65.5q1 -37 45 -131.5t64 -100.5q13 -4 31 22t31 64t13 67q0 54 34 85q24 22 33.5 22t33.5 -22q34 -31 79 -120q29 -58 64.5 -108.5t64.5 -76t40 -14.5q23 23 36 161q6 67 6 116q0 54 -7 89q-8 37 -8 62q0 30 11 44 q19 24 42 24q16 0 33 -12q11 -8 11 -106q0 -58 -4 -147q-10 -241 -31 -309q-18 -59 -38 -70q-8 -4 -20 -4q-20 0 -53 10q-44 14 -100.5 75t-91.5 130q-22 43 -40 43q-3 0 -5 -1q-20 -7 -56 -76q-29 -56 -72.5 -104.5t-65.5 -49.5q-9 0 -19.5 23t-42 96t-69.5 149 q-35 68 -43 140z" />
<glyph unicode="x" horiz-adv-x="593" d="M31 680q11 10 36 10q26 0 42.5 -17.5t41.5 -58.5t54 -71l43 -46l58 71q26 32 53.5 68.5t40 53.5t27 32.5t25.5 20.5q8 3 17 3q4 0 8 -1q38 -6 38 -33q0 -10 -5 -24q-16 -39 -79 -117q-94 -118 -94 -135q0 -38 141 -108q78 -38 92 -82q3 -7 3 -14q0 -21 -28 -32 q-4 -2 -10 -2q-29 0 -102 36q-88 42 -122 80q-22 25 -38 16.5t-80 -80.5q-62 -69 -79 -79q-5 -3 -11 -3q-13 0 -28 14q-16 15 -18 25t5.5 24.5t35.5 53.5q44 63 54.5 92t-1 57.5t-58.5 85.5q-73 90 -73 134q0 16 11 26z" />
<glyph unicode="y" horiz-adv-x="520" d="M21 664v11q0 61 20 68q31 12 49 -15t28 -100q14 -100 31.5 -192.5t25.5 -106.5q13 -23 46.5 -16t52.5 36q27 43 60.5 160.5t33.5 170.5q0 62 20 82t33 20q8 0 14 -7q19 -25 41 -216l2 -18q21 -185 21 -311q0 -83 -9 -141q-23 -146 -122 -250q-48 -50 -74 -65.5t-64 -15.5 q-49 0 -90 37t-41 82q0 31 19 31q9 0 22 -7q17 -9 38 -28q30 -28 42.5 -29t55.5 22q55 29 80.5 68t43.5 123q11 53 16 130q3 45 3 84q0 27 -1 51q-4 57 -15 57q-17 0 -43 -50q-23 -44 -77 -80.5t-96 -36.5q-50 0 -86 52.5t-50 145.5q-28 182 -30 254z" />
<glyph unicode="z" horiz-adv-x="745" d="M20 646.5q0 7.5 24 33.5q32 35 101 35q66 0 182.5 -25t139.5 -43q20 -16 23 -52.5t-14 -55.5q-9 -10 -17.5 -32t-17 -46.5t-35 -64.5t-67.5 -83q-83 -87 -83 -105q2 -13 38 -10.5t244 32.5q87 12 124.5 12t48.5 -9q14 -14 14 -29q0 -10 -6 -19q-16 -24 -55 -25 q-18 0 -116 -19t-192 -34q-60 -10 -116 -10q-32 -1 -63 3q-100 10 -100 54q0 21 128 153q95 97 144 173q37 57 37 85q0 9 -4 16q-5 7 -51 12t-106 5q-148 0 -180 23q-25 18 -25 25.5z" />
<glyph unicode="{" />
<glyph unicode="|" />
<glyph unicode="}" />
<glyph unicode="~" />
<glyph unicode="&#xa2;" />
<glyph unicode="&#xa3;" />
<glyph unicode="&#xa7;" />
<glyph unicode="&#xab;" />
<glyph unicode="&#xbb;" />
<glyph unicode="&#xbf;" />
<glyph unicode="&#xc0;" />
<glyph unicode="&#xc1;" />
<glyph unicode="&#xc2;" />
<glyph unicode="&#xc4;" />
<glyph unicode="&#xc7;" />
<glyph unicode="&#xc8;" />
<glyph unicode="&#xc9;" />
<glyph unicode="&#xca;" />
<glyph unicode="&#xcb;" />
<glyph unicode="&#xce;" />
<glyph unicode="&#xcf;" />
<glyph unicode="&#xd1;" />
<glyph unicode="&#xd3;" />
<glyph unicode="&#xd4;" />
<glyph unicode="&#xd6;" />
<glyph unicode="&#xd9;" />
<glyph unicode="&#xda;" />
<glyph unicode="&#xdb;" />
<glyph unicode="&#xdc;" />
<glyph unicode="&#xdf;" />
<glyph unicode="&#xe0;" />
<glyph unicode="&#xe1;" />
<glyph unicode="&#xe2;" />
<glyph unicode="&#xe4;" />
<glyph unicode="&#xe7;" />
<glyph unicode="&#xe8;" />
<glyph unicode="&#xe9;" />
<glyph unicode="&#xea;" />
<glyph unicode="&#xeb;" />
<glyph unicode="&#xee;" />
<glyph unicode="&#xef;" />
<glyph unicode="&#xf3;" />
<glyph unicode="&#xf4;" />
<glyph unicode="&#xf6;" />
<glyph unicode="&#xf9;" />
<glyph unicode="&#xfa;" />
<glyph unicode="&#xfb;" />
<glyph unicode="&#xfc;" />
<glyph unicode="&#x201c;" horiz-adv-x="456" d="M20 969q0 20 19 42.5t32 22.5q21 0 45 -41t32 -90q6 -38 22.5 -66.5t33 -40.5t31 -26t17.5 -22.5t-8 -29.5q-16 -26 -55 -24t-69 30q-22 19 -61 115t-39 130zM280 921q-8 31 2 55t21.5 32.5t17.5 8.5q17 0 34.5 -25t17.5 -49q0 -32 36 -108q26 -54 27 -67.5t-21 -29.5 q-47 -34 -70.5 -18t-40.5 94z" />
<glyph unicode="&#x201e;" horiz-adv-x="339" d="M20.5 829.5q-2.5 95.5 20.5 117.5q45 45 73 2q25 -39 21 -125q-2 -53 -14 -84.5t-30.5 -37.5t-43.5 13q-24 19 -26.5 114.5zM225 846q-6 122 16 148q27 32 51 17.5t28 -64.5q5 -60 -19 -141.5t-47 -81.5t-29 122z" />
<glyph unicode="&#x2022;" />
<glyph unicode="&#x20ac;" />
<glyph unicode="&#x25fc;" horiz-adv-x="747" d="M0 0v748h748v-748h-748z" />
</font>
</defs>
</svg>
